<svg id="Group_22" data-name="Group 22" xmlns="http://www.w3.org/2000/svg" width="57.821" height="80.996" viewBox="0 0 57.821 80.996">
  <g id="css" transform="translate(0)">
    <g id="形状_1_19_" transform="translate(0 15.947)">
      <g id="形状_1">
        <g id="Group_6" data-name="Group 6">
          <path id="Path_12" data-name="Path 12" d="M91.809,117.07l5.42,58.723,23.49,6.325,23.489-6.325,5.421-58.723Z" transform="translate(-91.809 -117.07)" fill="#1758a7" fill-rule="evenodd"/>
        </g>
      </g>
    </g>
    <g id="形状_1_18_" transform="translate(28.91 20.704)">
      <g id="形状_1_1_">
        <g id="Group_7" data-name="Group 7">
          <path id="Path_13" data-name="Path 13" d="M256,144.084v55.247l.053.014,19.009-5.119,4.387-50.143Z" transform="translate(-255.997 -144.084)" fill="#379ad6" fill-rule="evenodd"/>
        </g>
      </g>
    </g>
    <g id="形状_1_17_" transform="translate(13.215 53.172)">
      <g id="形状_1_2_">
        <g id="Group_8" data-name="Group 8">
          <path id="Path_14" data-name="Path 14" d="M182.49,336.237l-.013,0-7.848-2-.476-5.761h-7.293l.951,11.122,14.744,4.4v-7.784Z" transform="translate(-166.861 -328.479)" fill="#e8e8e7" fill-rule="evenodd"/>
        </g>
      </g>
    </g>
    <g id="形状_1_16_" transform="translate(28.91 42.308)">
      <g id="形状_1_3_">
        <g id="Group_9" data-name="Group 9">
          <path id="Path_15" data-name="Path 15" d="M256,266.782v7.066h.021l8.716.009-.559,9.236-8.157,2.3L256,285.4v7.763l.021.006.006,0,14.784-4.318,1.918-22.068Z" transform="translate(-256.001 -266.782)" fill="#fbfbfa" fill-rule="evenodd"/>
        </g>
      </g>
    </g>
    <g id="形状_1_15_" transform="translate(12.183 42.308)">
      <g id="形状_1_4_">
        <g id="Group_10" data-name="Group 10">
          <path id="Path_16" data-name="Path 16" d="M161,266.782l.555,7.058v.011h16.171v-7.07Z" transform="translate(-161.002 -266.782)" fill="#e5e4e2" fill-rule="evenodd"/>
        </g>
      </g>
    </g>
    <g id="形状_1_14_" transform="translate(12.184 35.236)">
      <g id="形状_1_5_">
        <g id="Group_11" data-name="Group 11">
          <path id="Path_17" data-name="Path 17" d="M161.008,233.689h16.685l.041-.018v-7.054Z" transform="translate(-161.008 -226.617)" fill="#eee" fill-rule="evenodd"/>
        </g>
      </g>
    </g>
    <g id="形状_1_13_" transform="translate(28.91 34.893)">
      <g id="形状_1_6_">
        <g id="Group_12" data-name="Group 12">
          <path id="Path_18" data-name="Path 18" d="M256.979,224.667l-.978.409v7l17.247-7.414Z" transform="translate(-256.001 -224.667)" fill="#fff" fill-rule="evenodd"/>
        </g>
      </g>
    </g>
    <g id="形状_1_12_" transform="translate(10.633 27.823)">
      <g id="形状_1_7_">
        <g id="Group_13" data-name="Group 13">
          <path id="Path_19" data-name="Path 19" d="M152.2,184.515l.874,7.07h17.4v-7.07Z" transform="translate(-152.196 -184.515)" fill="#e7e7e6" fill-rule="evenodd"/>
        </g>
      </g>
    </g>
    <g id="形状_1_11_" transform="translate(28.91 27.823)">
      <g id="形状_1_8_">
        <g id="Group_14" data-name="Group 14">
          <path id="Path_20" data-name="Path 20" d="M256,191.585l17.932-7.07H256Zm0,0h17.213l.714-7.07Z" transform="translate(-256.001 -184.515)" fill="#f8f8f7" fill-rule="evenodd"/>
        </g>
      </g>
    </g>
    <g id="形状_1_10_" transform="translate(11.754 0)">
      <g id="形状_1_9_">
        <g id="Group_15" data-name="Group 15">
          <path id="Path_21" data-name="Path 21" d="M158.564,37.309h8.924v-3.49h-5.1v-3.5h5.1V26.5h-8.924ZM171.3,30.324c1.194,1.194,1.817,1.765,3.544,3.492l-3.544,0v3.489h8.925v-3.49l-3.565-3.5h3.565V26.5H171.3ZM192.877,26.5h-8.925v3.825c1.194,1.194,1.817,1.765,3.544,3.492l-3.544,0v3.489h8.925v-3.49l-3.565-3.5h3.565Z" transform="translate(-158.564 -26.499)" fill="#fbfbfa" fill-rule="evenodd"/>
        </g>
      </g>
    </g>
  </g>
</svg>
