<svg id="Group_21" data-name="Group 21" xmlns="http://www.w3.org/2000/svg" width="57.435" height="81.07" viewBox="0 0 57.435 81.07">
  <g id="html" transform="translate(0 0)">
    <g id="形状_1_9_" transform="translate(0 15.932)">
      <g id="形状_1">
        <g id="Group_16" data-name="Group 16">
          <path id="Path_22" data-name="Path 22" d="M93.063,116.909l5.227,58.627,23.456,6.511,23.52-6.521,5.233-58.617Z" transform="translate(-93.063 -116.909)" fill="#e44d26" fill-rule="evenodd"/>
        </g>
      </g>
    </g>
    <g id="形状_1_8_" transform="translate(10.688 27.916)">
      <g id="形状_1_1_">
        <g id="Group_17" data-name="Group 17">
          <path id="Path_23" data-name="Path 23" d="M171.732,184.9H153.7l.172,1.929,1.767,19.814h16.091v-7.19h-9.515l-.657-7.363h10.172Zm-8.039,31.073-.512-5.734h-7.218l1.007,11.29L171.7,225.62l.033-.009V218.13l-.032.008Z" transform="translate(-153.702 -184.903)" fill="#ebebeb" fill-rule="evenodd"/>
        </g>
      </g>
    </g>
    <g id="形状_1_7_" transform="translate(28.718 20.726)">
      <g id="形状_1_2_">
        <g id="Group_18" data-name="Group 18">
          <path id="Path_24" data-name="Path 24" d="M256,144.106v55.36l19.005-5.269,4.472-50.091Z" transform="translate(-256 -144.106)" fill="#f16529" fill-rule="evenodd"/>
        </g>
      </g>
    </g>
    <g id="形状_1_6_" transform="translate(28.693 27.916)">
      <g id="形状_1_3_" transform="translate(0 0)">
        <g id="Group_19" data-name="Group 19">
          <path id="Path_25" data-name="Path 25" d="M255.858,206.647h8.854l-.835,9.325-8.019,2.165v7.48l14.74-4.085.108-1.215,1.69-18.93.175-1.931H255.858Zm0-21.744v7.19h17.368l.144-1.616.328-3.645.172-1.929Z" transform="translate(-255.858 -184.903)" fill="#fff" fill-rule="evenodd"/>
        </g>
      </g>
    </g>
    <g id="形状_1_5_" transform="translate(5.344 0)">
      <g id="形状_1_4_" transform="translate(0 0)">
        <g id="Group_20" data-name="Group 20">
          <path id="Path_26" data-name="Path 26" d="M130.379,30.124h-3.343v-3.61h-3.654V37.446h3.654V33.786h3.342v3.661h3.654V26.514h-3.654v3.61Zm5.243.015h3.217v7.307h3.654V30.139h3.218V26.514H135.622Zm17.845.216-2.344-3.841h-3.81V37.446h3.575V32.028l2.516,3.887h.063l2.514-3.887v5.419h3.639V26.514h-3.812Zm11.627,3.477V26.514h-3.655V37.446h8.794V33.833Z" transform="translate(-123.383 -26.514)" fill="#fff" fill-rule="evenodd"/>
        </g>
      </g>
    </g>
  </g>
</svg>
