<svg xmlns="http://www.w3.org/2000/svg" width="85" height="86.349" viewBox="0 0 85 86.349">
  <g id="Group_39" data-name="Group 39" transform="translate(-2207 -3570)">
    <rect id="Rectangle_37" data-name="Rectangle 37" width="44" height="45" transform="translate(2228 3599)" fill="#fff"/>
    <g id="Group_38" data-name="Group 38" transform="translate(2207.625 3570.07)">
      <g id="Group_37" data-name="Group 37" transform="translate(13.586 21.134)">
        <g id="g5193" transform="translate(0 0)">
          <path id="path5113" d="M.321,171.973-5,113.4l57.321.022-5.276,58.505-23.429,6.617Zm42.409-3.2,4.449-50.167H23.705l.179,55.331ZM21.514,125.964h-5.7l-.067,30.024L4.68,152.97l.022,6.863,16.812,4.538Z" transform="translate(5 -113.4)" fill="#d4b830"/>
          <path id="path5159" d="M53.722,207.992c-.738-.224-4.382-1.207-8.093-2.213L38.9,203.968v-3.376c0-3.309,0-3.376.335-3.264.179.067,2.638.738,5.455,1.52l5.12,1.408.045-14.978L49.9,170.3h5.589v19.047c0,15.135-.045,19.047-.2,19.047-.112-.022-.827-.2-1.565-.4Z" transform="translate(-29.086 -157.579)" fill="rgba(235,235,235,0)" opacity="0.986"/>
          <path id="path5157" d="M38.322,203.547l-.022-6.863s7.064,1.99,11.066,3.018l.067-30h5.7v38.385Z" transform="translate(-28.62 -157.114)" fill="rgba(235,235,235,0.92)" opacity="0.986"/>
          <path id="path5117" d="M123.4,136.6h23.474l-4.449,50.167L123.4,191.931Zm17.818,41.761L142.76,159.6l-11.4,1.274V150.863l12.162-.045.492-6.841-18.354.089.246,24.9,11.089-1.9-.156,5.544-11.178,2.973.112,6.8Z" transform="translate(-94.695 -131.413)" fill="#fdd83c"/>
        </g>
      </g>
      <text id="JavaScript" transform="translate(0.375 13.93)" fill="#fbfbfa" font-size="15" font-family="Gotham-Ultra, Gotham" letter-spacing="0.014em"><tspan x="0" y="0">JavaScript</tspan></text>
    </g>
  </g>
</svg>
